<svg xmlns="http://www.w3.org/2000/svg" viewBox="220 580 600 600">
  <rect x="220" y="580" width="600" height="600" rx="80" fill="#0D1B2A"/>
  <g transform="translate(0,67.5)">
    <g transform="matrix(1,0,0,1,-508.495,-1061.87)">
      <g transform="matrix(0.479767,0,0,0.479767,457.613,854.167)">
        <path d="M451.178,1583.27C364.208,1321.42 442.128,948.62 622.724,719.037C422.088,941.363 339.468,1341.09 398.076,1594.16C416.893,1599.32 435.986,1594.95 451.178,1583.27Z" fill="#BEE9E8"/>
      </g>
      <g transform="matrix(0.479767,0,0,0.479767,455.613,850.167)">
        <path d="M787.049,528.486L522.611,843.103C509.148,812.4 500.203,776.816 495.223,736.947C494.501,774.777 500.436,811.086 514.631,856.583L462.825,953.765C440.235,908.8 426.655,869.105 418.106,813.542C416.831,867.306 428.313,911.927 454.412,975.302L406.03,1096.47C365.645,1032.49 340.708,970.687 330.834,911.009C337.093,998.171 364.737,1060.63 399.768,1121.22L367.944,1247.37C316.501,1181.79 281.478,1114.85 262.723,1046.57C270.96,1108.5 298.293,1182.79 364.319,1275.06L351.621,1430.62C-4.086,1119.05 289.468,681.91 787.049,528.486Z" fill="#408007"/>
      </g>
    </g>
  </g>
</svg>
