<?xml version="1.0" encoding="UTF-8" standalone="no"?>
<!DOCTYPE svg PUBLIC "-//W3C//DTD SVG 1.1//EN" "http://www.w3.org/Graphics/SVG/1.1/DTD/svg11.dtd">
<svg width="100%" height="100%" viewBox="0 0 600 600" version="1.1" xmlns="http://www.w3.org/2000/svg" xmlns:xlink="http://www.w3.org/1999/xlink" xml:space="preserve" xmlns:serif="http://www.serif.com/" style="fill-rule:evenodd;clip-rule:evenodd;stroke-linecap:round;stroke-linejoin:round;stroke-miterlimit:1.5;">
    <g transform="matrix(1,0,0,1,-220,-580)">
        <path d="M820,660L820,1100C820,1144.15 784.153,1180 740,1180L300,1180C255.847,1180 220,1144.15 220,1100L220,660C220,615.847 255.847,580 300,580L740,580C784.153,580 820,615.847 820,660Z" style="fill:rgb(13,27,42);"/>
    </g>
    <g transform="matrix(1,0,0,1,-220,-512.5)">
        <g transform="matrix(1,0,0,1,-190.485,-549.369)">
            <g transform="matrix(0.479767,0,0,0.479767,457.613,854.167)">
                <path d="M451.178,1583.27C364.208,1321.42 442.128,948.62 622.724,719.037C422.088,941.363 339.468,1341.09 398.076,1594.16C416.893,1599.32 435.986,1594.95 451.178,1583.27Z" style="fill:rgb(247,247,247);"/>
            </g>
            <g transform="matrix(0.479767,0,0,0.479767,455.613,850.167)">
                <path d="M787.049,528.486L522.611,843.103C509.148,812.4 500.203,776.816 495.223,736.947C494.501,774.777 500.436,811.086 514.631,856.583L462.825,953.765C440.235,908.8 426.655,869.105 418.106,813.542C416.831,867.306 428.313,911.927 454.412,975.302L406.03,1096.47C365.645,1032.49 340.708,970.687 330.834,911.009C337.093,998.171 364.737,1060.63 399.768,1121.22L367.944,1247.37C316.501,1181.79 281.478,1114.85 262.723,1046.57C270.96,1108.5 298.293,1182.79 364.319,1275.06L351.621,1430.62C-4.086,1119.05 289.468,681.91 787.049,528.486Z" style="fill:rgb(64,128,7);"/>
            </g>
        </g>
        <g transform="matrix(1,0,0,1,-190.485,-549.369)">
            <g transform="matrix(0.479767,0,0,0.479767,457.613,854.167)">
                <path d="M412.764,1381.16L506.026,1381.16L535.194,1410.33" style="fill:none;stroke:rgb(247,247,247);stroke-width:10.76px;"/>
            </g>
            <g transform="matrix(0.479767,0,0,0.479767,457.613,854.167)">
                <path d="M413.186,1346.04L488.917,1346.04L497.315,1334.69L515.307,1334.69L530.429,1350.85L551.307,1350.85" style="fill:none;stroke:rgb(247,247,247);stroke-width:10.76px;"/>
            </g>
            <g transform="matrix(0.479767,0,0,0.479767,457.613,854.167)">
                <path d="M418.296,1278.56L440.276,1278.56L465.296,1306.45L593.645,1306.45" style="fill:none;stroke:rgb(247,247,247);stroke-width:10.76px;"/>
            </g>
            <g transform="matrix(0.479767,0,0,0.479767,457.613,854.167)">
                <path d="M420.386,1246.61L470.089,1246.61L489.022,1265.04L507.179,1265.04" style="fill:none;stroke:rgb(247,247,247);stroke-width:10.76px;"/>
            </g>
            <g transform="matrix(0.479767,0,0,0.479767,457.613,854.167)">
                <path d="M420.44,1218.88L533.417,1218.88L574.515,1263.36L658.417,1263.36L686.335,1287.27" style="fill:none;stroke:rgb(247,247,247);stroke-width:10.76px;"/>
            </g>
            <g transform="matrix(0.479767,0,0,0.479767,457.613,854.167)">
                <path d="M456.241,1218.88L481.456,1186.22L563.233,1186.22L606.432,1140.27" style="fill:none;stroke:rgb(247,247,247);stroke-width:10.76px;"/>
            </g>
            <g transform="matrix(0.479767,0,0,0.479767,457.613,854.167)">
                <path d="M551.331,1186.22L577.347,1214.59L663.268,1214.59L683.018,1232.08" style="fill:none;stroke:rgb(247,247,247);stroke-width:10.76px;"/>
            </g>
            <g transform="matrix(0.479767,0,0,0.479767,456.753,855.889)">
                <path d="M568.354,1183.51L627.015,1183.51L654.815,1152.11L683.53,1152.11L709.975,1176.29" style="fill:none;stroke:rgb(247,247,247);stroke-width:10.76px;"/>
            </g>
            <g transform="matrix(0.479767,0,0,0.479767,457.613,854.167)">
                <path d="M420.493,1197.26L467.241,1153.33L534.026,1153.33" style="fill:none;stroke:rgb(247,247,247);stroke-width:10.76px;"/>
            </g>
            <g transform="matrix(0.479767,0,0,0.479767,457.613,854.167)">
                <path d="M438.784,1126.53L524.772,1126.53L561.515,1090.7L650.632,1090.7L693.874,1046.91L735.034,1046.91" style="fill:none;stroke:rgb(247,247,247);stroke-width:10.76px;"/>
            </g>
            <g transform="matrix(0.479767,0,0,0.479767,457.613,854.167)">
                <path d="M480.995,1126.53L541.94,1061.32L620.1,1061.32L689.975,990.575L751.71,990.575L784.257,961.907" style="fill:none;stroke:rgb(247,247,247);stroke-width:10.76px;"/>
            </g>
            <g transform="matrix(0.479767,0,0,0.479767,457.613,854.167)">
                <path d="M670.639,1010.15L773.706,1010.15L821.905,965.646L834.093,965.646" style="fill:none;stroke:rgb(247,247,247);stroke-width:10.76px;"/>
            </g>
            <g transform="matrix(0.479767,0,0,0.479767,457.613,854.167)">
                <path d="M436.491,1116.6L526.573,1034.47L597.909,1034.47L625.409,1004.56" style="fill:none;stroke:rgb(247,247,247);stroke-width:10.76px;"/>
            </g>
            <g transform="matrix(0.479767,0,0,0.479767,457.613,854.167)">
                <path d="M452.253,1059.62L507.069,1006.9L566.765,1006.9L632.718,941.669L675.788,941.669L693.522,929.548" style="fill:none;stroke:rgb(247,247,247);stroke-width:10.76px;"/>
            </g>
            <g transform="matrix(0.479767,0,0,0.479767,457.613,854.167)">
                <path d="M536.804,1006.9L558.663,984.649L558.663,950.223L588.608,927.762" style="fill:none;stroke:rgb(247,247,247);stroke-width:10.76px;"/>
            </g>
            <g transform="matrix(0.479767,0,0,0.479767,457.613,854.167)">
                <path d="M479.628,980.161L526.694,980.161L526.694,957.126" style="fill:none;stroke:rgb(247,247,247);stroke-width:10.76px;"/>
            </g>
            <g transform="matrix(0.479767,0,0,0.479767,457.613,854.167)">
                <path d="M495.614,931.823L548.339,881.372L683.253,881.372L707.874,857.044" style="fill:none;stroke:rgb(247,247,247);stroke-width:10.76px;"/>
            </g>
            <g transform="matrix(0.479767,0,0,0.479767,457.613,854.167)">
                <path d="M574.225,881.372L615.921,835.04L665.327,835.04L716.03,776.105L716.03,742.286" style="fill:none;stroke:rgb(247,247,247);stroke-width:10.76px;"/>
            </g>
            <g transform="matrix(0.479767,0,0,0.479767,458.613,854.167)">
                <path d="M537.999,843.969L561.718,843.969L599.792,804.813L646.671,804.813L655.304,792.11" style="fill:none;stroke:rgb(247,247,247);stroke-width:10.76px;"/>
            </g>
            <g transform="matrix(0.479767,0,0,0.479767,457.613,854.167)">
                <path d="M625.151,804.813L625.151,762.36L684.651,699.087L684.651,675.087L720.046,637.161" style="fill:none;stroke:rgb(247,247,247);stroke-width:10.76px;"/>
            </g>
            <g transform="matrix(0.479767,0,0,0.479767,457.613,854.167)">
                <path d="M720.046,637.161L771.797,610.468" style="fill:none;stroke:rgb(247,247,247);stroke-width:10.84px;"/>
            </g>
            <g transform="matrix(0.479767,0,0,0.479767,457.613,854.167)">
                <path d="M612.969,965.063L724.3,965.063L746.893,943.427L746.893,896.38L775.132,863.954L800.679,863.954" style="fill:none;stroke:rgb(247,247,247);stroke-width:10.76px;"/>
            </g>
            <g transform="matrix(0.479767,0,0,0.479767,459.335,854.167)">
                <path d="M652.069,1087.9L755.208,1087.9L786.442,1061.37L786.442,1044.56L800.876,1029.67L826.005,1029.67" style="fill:none;stroke:rgb(247,247,247);stroke-width:10.76px;"/>
            </g>
            <g transform="matrix(0.479767,0,0,0.479767,458.474,854.167)">
                <path d="M652.069,1089.99L698.347,1141.49L766.811,1141.49" style="fill:none;stroke:rgb(247,247,247);stroke-width:10.76px;"/>
            </g>
            <g transform="matrix(0.479767,0,0,0.479767,457.613,854.167)">
                <path d="M702.338,795.524L760.499,795.524L786.249,762.098L811.64,762.098" style="fill:none;stroke:rgb(247,247,247);stroke-width:10.76px;"/>
            </g>
            <g transform="matrix(0.479767,0,0,0.479767,457.613,854.167)">
                <path d="M699.827,659.509L720.53,679.212L778.866,679.212" style="fill:none;stroke:rgb(247,247,247);stroke-width:10.76px;"/>
            </g>
        </g>
        <g transform="matrix(1,0,0,1,-190.485,-549.369)">
            <g transform="matrix(0.479767,0,0,0.479767,452.882,851.012)">
                <circle cx="826.046" cy="869.786" r="14.281" style="fill:rgb(247,247,247);"/>
            </g>
            <g transform="matrix(0.479767,0,0,0.479767,437.476,726.994)">
                <circle cx="826.046" cy="869.786" r="14.281" style="fill:rgb(247,247,247);"/>
            </g>
            <g transform="matrix(0.479767,0,0,0.479767,405.116,785.859)">
                <circle cx="826.046" cy="869.786" r="14.281" style="fill:rgb(247,247,247);"/>
            </g>
            <g transform="matrix(0.479767,0,0,0.479767,379.129,810.503)">
                <circle cx="826.046" cy="869.786" r="14.281" style="fill:rgb(247,247,247);"/>
            </g>
            <g transform="matrix(0.479767,0,0,0.479767,405.357,842.837)">
                <circle cx="826.046" cy="869.786" r="14.281" style="fill:rgb(247,247,247);"/>
            </g>
            <g transform="matrix(0.479767,0,0,0.479767,348.438,877.387)">
                <circle cx="826.046" cy="869.786" r="14.281" style="fill:rgb(247,247,247);"/>
            </g>
            <g transform="matrix(0.479767,0,0,0.479767,314.213,889.122)">
                <circle cx="826.046" cy="869.786" r="14.281" style="fill:rgb(247,247,247);"/>
            </g>
            <g transform="matrix(0.479767,0,0,0.479767,468.782,900.249)">
                <circle cx="826.046" cy="869.786" r="14.281" style="fill:rgb(247,247,247);"/>
            </g>
            <g transform="matrix(0.479767,0,0,0.479767,442.482,893.088)">
                <circle cx="826.046" cy="869.786" r="14.281" style="fill:rgb(247,247,247);"/>
            </g>
            <g transform="matrix(0.479767,0,0,0.479767,398.069,878.367)">
                <circle cx="826.046" cy="869.786" r="14.281" style="fill:rgb(247,247,247);"/>
            </g>
            <g transform="matrix(0.479767,0,0,0.479767,364.714,913.156)">
                <circle cx="826.046" cy="869.786" r="14.281" style="fill:rgb(247,247,247);"/>
            </g>
            <g transform="matrix(0.479767,0,0,0.479767,420.596,939.317)">
                <circle cx="826.046" cy="869.786" r="14.281" style="fill:rgb(247,247,247);"/>
            </g>
            <g transform="matrix(0.479767,0,0,0.479767,465.93,930.44)">
                <circle cx="826.046" cy="869.786" r="14.281" style="fill:rgb(247,247,247);"/>
            </g>
            <g transform="matrix(0.479767,0,0,0.479767,436.784,984.277)">
                <circle cx="826.046" cy="869.786" r="14.281" style="fill:rgb(247,247,247);"/>
            </g>
            <g transform="matrix(0.479767,0,0,0.479767,405.848,1006.97)">
                <circle cx="826.046" cy="869.786" r="14.281" style="fill:rgb(247,247,247);"/>
            </g>
            <g transform="matrix(0.479767,0,0,0.479767,393.746,1032.7)">
                <circle cx="826.046" cy="869.786" r="14.281" style="fill:rgb(247,247,247);"/>
            </g>
            <g transform="matrix(0.479767,0,0,0.479767,353.452,1063.64)">
                <circle cx="826.046" cy="869.786" r="14.281" style="fill:rgb(247,247,247);"/>
            </g>
            <g transform="matrix(0.479767,0,0,0.479767,333.141,1085.02)">
                <circle cx="826.046" cy="869.786" r="14.281" style="fill:rgb(247,247,247);"/>
            </g>
            <g transform="matrix(0.479767,0,0,0.479767,323.367,1118.69)">
                <circle cx="826.046" cy="869.786" r="14.281" style="fill:rgb(247,247,247);"/>
            </g>
            <g transform="matrix(0.479767,0,0,0.479767,311.365,1043.4)">
                <circle cx="826.046" cy="869.786" r="14.281" style="fill:rgb(247,247,247);"/>
            </g>
            <g transform="matrix(0.479767,0,0,0.479767,324.735,989.985)">
                <circle cx="826.046" cy="869.786" r="14.281" style="fill:rgb(247,247,247);"/>
            </g>
            <g transform="matrix(0.479767,0,0,0.479767,357.637,978.625)">
                <circle cx="826.046" cy="869.786" r="14.281" style="fill:rgb(247,247,247);"/>
            </g>
            <g transform="matrix(0.479767,0,0,0.479767,395.67,1059.3)">
                <circle cx="826.046" cy="869.786" r="14.281" style="fill:rgb(247,247,247);"/>
            </g>
            <g transform="matrix(0.479767,0,0,0.479767,458.175,802.176)">
                <circle cx="826.046" cy="869.786" r="14.281" style="fill:rgb(247,247,247);"/>
            </g>
            <g transform="matrix(0.479767,0,0,0.479767,441.879,762.244)">
                <circle cx="826.046" cy="869.786" r="14.281" style="fill:rgb(247,247,247);"/>
            </g>
        </g>
    </g>
</svg>
