<?xml version="1.0" encoding="UTF-8" standalone="no"?>
<!DOCTYPE svg PUBLIC "-//W3C//DTD SVG 1.1//EN" "http://www.w3.org/Graphics/SVG/1.1/DTD/svg11.dtd">
<svg width="100%" height="100%" viewBox="0 0 1400 600" version="1.1" xmlns="http://www.w3.org/2000/svg" xmlns:xlink="http://www.w3.org/1999/xlink" xml:space="preserve" xmlns:serif="http://www.serif.com/" style="fill-rule:evenodd;clip-rule:evenodd;stroke-linecap:round;stroke-linejoin:round;stroke-miterlimit:1.5;">
    <g id="Background">
    </g>
    <g transform="matrix(18.1599,0,0,18.1599,-15627.5,-27363.7)">
        <path d="M911.639,1524.86L913.439,1524.86L913.439,1533.93L911.639,1533.93L911.639,1524.86ZM907.799,1529.54L906.611,1529.54L906.611,1528.1L907.799,1528.1L907.799,1527.07C907.799,1526.75 907.827,1526.44 907.883,1526.16C907.939,1525.88 908.047,1525.63 908.207,1525.41C908.367,1525.19 908.597,1525.03 908.897,1524.9C909.197,1524.78 909.591,1524.71 910.079,1524.71C910.263,1524.71 910.443,1524.72 910.619,1524.74C910.795,1524.76 910.967,1524.78 911.135,1524.82L911.051,1526.35C910.947,1526.31 910.851,1526.28 910.763,1526.26C910.675,1526.24 910.575,1526.23 910.463,1526.23C910.175,1526.23 909.959,1526.29 909.815,1526.41C909.671,1526.54 909.599,1526.79 909.599,1527.17L909.599,1528.1L910.931,1528.1L910.931,1529.54L909.599,1529.54L909.599,1533.93L907.799,1533.93L907.799,1529.54Z" style="fill:rgb(64,128,7);fill-rule:nonzero;"/>
        <path d="M914.519,1531.02C914.519,1530.55 914.603,1530.13 914.771,1529.76C914.939,1529.38 915.169,1529.06 915.461,1528.79C915.753,1528.52 916.097,1528.32 916.493,1528.17C916.889,1528.03 917.311,1527.95 917.759,1527.95C918.207,1527.95 918.629,1528.03 919.025,1528.17C919.421,1528.32 919.765,1528.52 920.057,1528.79C920.349,1529.06 920.579,1529.38 920.747,1529.76C920.915,1530.13 920.999,1530.55 920.999,1531.02C920.999,1531.48 920.915,1531.9 920.747,1532.28C920.579,1532.65 920.349,1532.97 920.057,1533.24C919.765,1533.51 919.421,1533.72 919.025,1533.86C918.629,1534 918.207,1534.08 917.759,1534.08C917.311,1534.08 916.889,1534 916.493,1533.86C916.097,1533.72 915.753,1533.51 915.461,1533.24C915.169,1532.97 914.939,1532.65 914.771,1532.28C914.603,1531.9 914.519,1531.48 914.519,1531.02ZM916.319,1531.02C916.319,1531.45 916.445,1531.81 916.697,1532.08C916.949,1532.36 917.303,1532.49 917.759,1532.49C918.215,1532.49 918.569,1532.36 918.821,1532.08C919.073,1531.81 919.199,1531.45 919.199,1531.02C919.199,1530.58 919.073,1530.22 918.821,1529.95C918.569,1529.67 918.215,1529.54 917.759,1529.54C917.303,1529.54 916.949,1529.67 916.697,1529.95C916.445,1530.22 916.319,1530.58 916.319,1531.02ZM916.499,1527.24C916.355,1527.24 916.223,1527.21 916.103,1527.15C915.983,1527.1 915.879,1527.02 915.791,1526.92C915.703,1526.83 915.633,1526.72 915.581,1526.59C915.529,1526.47 915.503,1526.34 915.503,1526.2C915.503,1526.08 915.529,1525.95 915.581,1525.83C915.633,1525.71 915.703,1525.61 915.791,1525.52C915.879,1525.43 915.981,1525.36 916.097,1525.3C916.213,1525.25 916.339,1525.22 916.475,1525.22C916.755,1525.22 916.999,1525.31 917.207,1525.5C917.415,1525.68 917.519,1525.91 917.519,1526.2C917.519,1526.49 917.423,1526.74 917.231,1526.93C917.039,1527.13 916.795,1527.24 916.499,1527.24ZM918.995,1527.24C918.851,1527.24 918.719,1527.21 918.599,1527.15C918.479,1527.1 918.375,1527.02 918.287,1526.92C918.199,1526.83 918.129,1526.72 918.077,1526.59C918.025,1526.47 917.999,1526.34 917.999,1526.2C917.999,1526.08 918.025,1525.95 918.077,1525.83C918.129,1525.71 918.199,1525.61 918.287,1525.52C918.375,1525.43 918.477,1525.36 918.593,1525.3C918.709,1525.25 918.835,1525.22 918.971,1525.22C919.251,1525.22 919.495,1525.31 919.703,1525.5C919.911,1525.68 920.015,1525.91 920.015,1526.2C920.015,1526.49 919.919,1526.74 919.727,1526.93C919.535,1527.13 919.291,1527.24 918.995,1527.24Z" style="fill:rgb(64,128,7);fill-rule:nonzero;"/>
        <path d="M928.175,1533.93L926.519,1533.93L926.519,1533.16L926.495,1533.16C926.423,1533.27 926.329,1533.37 926.213,1533.48C926.097,1533.59 925.961,1533.69 925.805,1533.78C925.649,1533.86 925.477,1533.93 925.289,1533.99C925.101,1534.05 924.907,1534.08 924.707,1534.08C924.275,1534.08 923.883,1534 923.531,1533.85C923.179,1533.7 922.877,1533.5 922.625,1533.23C922.373,1532.96 922.179,1532.64 922.043,1532.28C921.907,1531.91 921.839,1531.5 921.839,1531.06C921.839,1530.65 921.901,1530.27 922.025,1529.89C922.149,1529.52 922.325,1529.19 922.553,1528.9C922.781,1528.62 923.059,1528.38 923.387,1528.21C923.715,1528.04 924.087,1527.95 924.503,1527.95C924.879,1527.95 925.229,1528.01 925.553,1528.13C925.877,1528.25 926.143,1528.44 926.351,1528.72L926.375,1528.72L926.375,1524.86L928.175,1524.86L928.175,1533.93ZM926.519,1531.02C926.519,1530.58 926.393,1530.22 926.141,1529.95C925.889,1529.67 925.535,1529.54 925.079,1529.54C924.623,1529.54 924.269,1529.67 924.017,1529.95C923.765,1530.22 923.639,1530.58 923.639,1531.02C923.639,1531.45 923.765,1531.81 924.017,1532.08C924.269,1532.36 924.623,1532.49 925.079,1532.49C925.535,1532.49 925.889,1532.36 926.141,1532.08C926.393,1531.81 926.519,1531.45 926.519,1531.02Z" style="fill:rgb(64,128,7);fill-rule:nonzero;"/>
        <path d="M935.135,1532.92C934.847,1533.29 934.483,1533.58 934.043,1533.78C933.603,1533.98 933.147,1534.08 932.675,1534.08C932.227,1534.08 931.805,1534 931.409,1533.86C931.013,1533.72 930.669,1533.51 930.377,1533.24C930.085,1532.97 929.855,1532.65 929.687,1532.28C929.519,1531.9 929.435,1531.48 929.435,1531.02C929.435,1530.55 929.519,1530.13 929.687,1529.76C929.855,1529.38 930.085,1529.06 930.377,1528.79C930.669,1528.52 931.013,1528.32 931.409,1528.17C931.805,1528.03 932.227,1527.95 932.675,1527.95C933.091,1527.95 933.469,1528.03 933.809,1528.17C934.149,1528.32 934.437,1528.52 934.673,1528.79C934.909,1529.06 935.091,1529.38 935.219,1529.76C935.347,1530.13 935.411,1530.55 935.411,1531.02L935.411,1531.58L931.235,1531.58C931.307,1531.92 931.463,1532.2 931.703,1532.4C931.943,1532.61 932.239,1532.71 932.591,1532.71C932.887,1532.71 933.137,1532.64 933.341,1532.51C933.545,1532.38 933.723,1532.21 933.875,1532L935.135,1532.92ZM933.611,1530.36C933.619,1530.05 933.519,1529.79 933.311,1529.58C933.103,1529.36 932.835,1529.25 932.507,1529.25C932.307,1529.25 932.131,1529.28 931.979,1529.35C931.827,1529.41 931.697,1529.49 931.589,1529.59C931.481,1529.69 931.397,1529.81 931.337,1529.94C931.277,1530.07 931.243,1530.21 931.235,1530.36L933.611,1530.36Z" style="fill:rgb(64,128,7);fill-rule:nonzero;"/>
    </g>
    <g id="Dark">
        <g id="Verk" transform="matrix(18.1599,0,0,18.1599,-16109.5,-27363.7)">
            <path d="M906.563,1525.43L908.699,1525.43L910.799,1531L910.823,1531L912.959,1525.43L914.963,1525.43L911.459,1533.93L909.959,1533.93L906.563,1525.43Z" style="fill:rgb(247,247,247);fill-rule:nonzero;"/>
            <path d="M920.483,1532.92C920.195,1533.29 919.831,1533.58 919.391,1533.78C918.951,1533.98 918.495,1534.08 918.023,1534.08C917.575,1534.08 917.153,1534 916.757,1533.86C916.361,1533.72 916.017,1533.51 915.725,1533.24C915.433,1532.97 915.203,1532.65 915.035,1532.28C914.867,1531.9 914.783,1531.48 914.783,1531.02C914.783,1530.55 914.867,1530.13 915.035,1529.76C915.203,1529.38 915.433,1529.06 915.725,1528.79C916.017,1528.52 916.361,1528.32 916.757,1528.17C917.153,1528.03 917.575,1527.95 918.023,1527.95C918.439,1527.95 918.817,1528.03 919.157,1528.17C919.497,1528.32 919.785,1528.52 920.021,1528.79C920.257,1529.06 920.439,1529.38 920.567,1529.76C920.695,1530.13 920.759,1530.55 920.759,1531.02L920.759,1531.58L916.583,1531.58C916.655,1531.92 916.811,1532.2 917.051,1532.4C917.291,1532.61 917.587,1532.71 917.939,1532.71C918.235,1532.71 918.485,1532.64 918.689,1532.51C918.893,1532.38 919.071,1532.21 919.223,1532L920.483,1532.92ZM918.959,1530.36C918.967,1530.05 918.867,1529.79 918.659,1529.58C918.451,1529.36 918.183,1529.25 917.855,1529.25C917.655,1529.25 917.479,1529.28 917.327,1529.35C917.175,1529.41 917.045,1529.49 916.937,1529.59C916.829,1529.69 916.745,1529.81 916.685,1529.94C916.625,1530.07 916.591,1530.21 916.583,1530.36L918.959,1530.36Z" style="fill:rgb(247,247,247);fill-rule:nonzero;"/>
            <path d="M921.851,1528.1L923.651,1528.1L923.651,1529.04L923.675,1529.04C923.867,1528.67 924.095,1528.4 924.359,1528.23C924.623,1528.05 924.955,1527.95 925.355,1527.95C925.459,1527.95 925.563,1527.96 925.667,1527.97C925.771,1527.98 925.867,1527.99 925.955,1528.02L925.955,1529.66C925.827,1529.62 925.701,1529.59 925.577,1529.57C925.453,1529.55 925.323,1529.54 925.187,1529.54C924.843,1529.54 924.571,1529.59 924.371,1529.68C924.171,1529.78 924.017,1529.91 923.909,1530.09C923.801,1530.26 923.731,1530.46 923.699,1530.7C923.667,1530.94 923.651,1531.21 923.651,1531.5L923.651,1533.93L921.851,1533.93L921.851,1528.1Z" style="fill:rgb(247,247,247);fill-rule:nonzero;"/>
            <path d="M926.735,1524.86L928.535,1524.86L928.535,1530.4L930.527,1528.1L932.735,1528.1L930.419,1530.73L932.795,1533.93L930.527,1533.93L928.559,1530.98L928.535,1530.98L928.535,1533.93L926.735,1533.93L926.735,1524.86Z" style="fill:rgb(247,247,247);fill-rule:nonzero;"/>
        </g>
        <g transform="matrix(1,0,0,1,-508.495,-1061.87)">
            <g transform="matrix(0.479767,0,0,0.479767,457.613,854.167)">
                <path d="M451.178,1583.27C364.208,1321.42 442.128,948.62 622.724,719.037C422.088,941.363 339.468,1341.09 398.076,1594.16C416.893,1599.32 435.986,1594.95 451.178,1583.27Z" style="fill:rgb(247,247,247);"/>
            </g>
            <g transform="matrix(0.479767,0,0,0.479767,455.613,850.167)">
                <path d="M787.049,528.486L522.611,843.103C509.148,812.4 500.203,776.816 495.223,736.947C494.501,774.777 500.436,811.086 514.631,856.583L462.825,953.765C440.235,908.8 426.655,869.105 418.106,813.542C416.831,867.306 428.313,911.927 454.412,975.302L406.03,1096.47C365.645,1032.49 340.708,970.687 330.834,911.009C337.093,998.171 364.737,1060.63 399.768,1121.22L367.944,1247.37C316.501,1181.79 281.478,1114.85 262.723,1046.57C270.96,1108.5 298.293,1182.79 364.319,1275.06L351.621,1430.62C-4.086,1119.05 289.468,681.91 787.049,528.486Z" style="fill:rgb(64,128,7);"/>
            </g>
        </g>
        <g transform="matrix(1,0,0,1,-508.495,-1061.87)">
            <g transform="matrix(0.479767,0,0,0.479767,457.613,854.167)">
                <path d="M412.764,1381.16L506.026,1381.16L535.194,1410.33" style="fill:none;stroke:rgb(247,247,247);stroke-width:10.76px;"/>
            </g>
            <g transform="matrix(0.479767,0,0,0.479767,457.613,854.167)">
                <path d="M413.186,1346.04L488.917,1346.04L497.315,1334.69L515.307,1334.69L530.429,1350.85L551.307,1350.85" style="fill:none;stroke:rgb(247,247,247);stroke-width:10.76px;"/>
            </g>
            <g transform="matrix(0.479767,0,0,0.479767,457.613,854.167)">
                <path d="M418.296,1278.56L440.276,1278.56L465.296,1306.45L593.645,1306.45" style="fill:none;stroke:rgb(247,247,247);stroke-width:10.76px;"/>
            </g>
            <g transform="matrix(0.479767,0,0,0.479767,457.613,854.167)">
                <path d="M420.386,1246.61L470.089,1246.61L489.022,1265.04L507.179,1265.04" style="fill:none;stroke:rgb(247,247,247);stroke-width:10.76px;"/>
            </g>
            <g transform="matrix(0.479767,0,0,0.479767,457.613,854.167)">
                <path d="M420.44,1218.88L533.417,1218.88L574.515,1263.36L658.417,1263.36L686.335,1287.27" style="fill:none;stroke:rgb(247,247,247);stroke-width:10.76px;"/>
            </g>
            <g transform="matrix(0.479767,0,0,0.479767,457.613,854.167)">
                <path d="M456.241,1218.88L481.456,1186.22L563.233,1186.22L606.432,1140.27" style="fill:none;stroke:rgb(247,247,247);stroke-width:10.76px;"/>
            </g>
            <g transform="matrix(0.479767,0,0,0.479767,457.613,854.167)">
                <path d="M551.331,1186.22L577.347,1214.59L663.268,1214.59L683.018,1232.08" style="fill:none;stroke:rgb(247,247,247);stroke-width:10.76px;"/>
            </g>
            <g transform="matrix(0.479767,0,0,0.479767,456.753,855.889)">
                <path d="M568.354,1183.51L627.015,1183.51L654.815,1152.11L683.53,1152.11L709.975,1176.29" style="fill:none;stroke:rgb(247,247,247);stroke-width:10.76px;"/>
            </g>
            <g transform="matrix(0.479767,0,0,0.479767,457.613,854.167)">
                <path d="M420.493,1197.26L467.241,1153.33L534.026,1153.33" style="fill:none;stroke:rgb(247,247,247);stroke-width:10.76px;"/>
            </g>
            <g transform="matrix(0.479767,0,0,0.479767,457.613,854.167)">
                <path d="M438.784,1126.53L524.772,1126.53L561.515,1090.7L650.632,1090.7L693.874,1046.91L735.034,1046.91" style="fill:none;stroke:rgb(247,247,247);stroke-width:10.76px;"/>
            </g>
            <g transform="matrix(0.479767,0,0,0.479767,457.613,854.167)">
                <path d="M480.995,1126.53L541.94,1061.32L620.1,1061.32L689.975,990.575L751.71,990.575L784.257,961.907" style="fill:none;stroke:rgb(247,247,247);stroke-width:10.76px;"/>
            </g>
            <g transform="matrix(0.479767,0,0,0.479767,457.613,854.167)">
                <path d="M670.639,1010.15L773.706,1010.15L821.905,965.646L834.093,965.646" style="fill:none;stroke:rgb(247,247,247);stroke-width:10.76px;"/>
            </g>
            <g transform="matrix(0.479767,0,0,0.479767,457.613,854.167)">
                <path d="M436.491,1116.6L526.573,1034.47L597.909,1034.47L625.409,1004.56" style="fill:none;stroke:rgb(247,247,247);stroke-width:10.76px;"/>
            </g>
            <g transform="matrix(0.479767,0,0,0.479767,457.613,854.167)">
                <path d="M452.253,1059.62L507.069,1006.9L566.765,1006.9L632.718,941.669L675.788,941.669L693.522,929.548" style="fill:none;stroke:rgb(247,247,247);stroke-width:10.76px;"/>
            </g>
            <g transform="matrix(0.479767,0,0,0.479767,457.613,854.167)">
                <path d="M536.804,1006.9L558.663,984.649L558.663,950.223L588.608,927.762" style="fill:none;stroke:rgb(247,247,247);stroke-width:10.76px;"/>
            </g>
            <g transform="matrix(0.479767,0,0,0.479767,457.613,854.167)">
                <path d="M479.628,980.161L526.694,980.161L526.694,957.126" style="fill:none;stroke:rgb(247,247,247);stroke-width:10.76px;"/>
            </g>
            <g transform="matrix(0.479767,0,0,0.479767,457.613,854.167)">
                <path d="M495.614,931.823L548.339,881.372L683.253,881.372L707.874,857.044" style="fill:none;stroke:rgb(247,247,247);stroke-width:10.76px;"/>
            </g>
            <g transform="matrix(0.479767,0,0,0.479767,457.613,854.167)">
                <path d="M574.225,881.372L615.921,835.04L665.327,835.04L716.03,776.105L716.03,742.286" style="fill:none;stroke:rgb(247,247,247);stroke-width:10.76px;"/>
            </g>
            <g transform="matrix(0.479767,0,0,0.479767,458.613,854.167)">
                <path d="M537.999,843.969L561.718,843.969L599.792,804.813L646.671,804.813L655.304,792.11" style="fill:none;stroke:rgb(247,247,247);stroke-width:10.76px;"/>
            </g>
            <g transform="matrix(0.479767,0,0,0.479767,457.613,854.167)">
                <path d="M625.151,804.813L625.151,762.36L684.651,699.087L684.651,675.087L720.046,637.161" style="fill:none;stroke:rgb(247,247,247);stroke-width:10.76px;"/>
            </g>
            <g transform="matrix(0.479767,0,0,0.479767,457.613,854.167)">
                <path d="M720.046,637.161L771.797,610.468" style="fill:none;stroke:rgb(247,247,247);stroke-width:10.84px;"/>
            </g>
            <g transform="matrix(0.479767,0,0,0.479767,457.613,854.167)">
                <path d="M612.969,965.063L724.3,965.063L746.893,943.427L746.893,896.38L775.132,863.954L800.679,863.954" style="fill:none;stroke:rgb(247,247,247);stroke-width:10.76px;"/>
            </g>
            <g transform="matrix(0.479767,0,0,0.479767,459.335,854.167)">
                <path d="M652.069,1087.9L755.208,1087.9L786.442,1061.37L786.442,1044.56L800.876,1029.67L826.005,1029.67" style="fill:none;stroke:rgb(247,247,247);stroke-width:10.76px;"/>
            </g>
            <g transform="matrix(0.479767,0,0,0.479767,458.474,854.167)">
                <path d="M652.069,1089.99L698.347,1141.49L766.811,1141.49" style="fill:none;stroke:rgb(247,247,247);stroke-width:10.76px;"/>
            </g>
            <g transform="matrix(0.479767,0,0,0.479767,457.613,854.167)">
                <path d="M702.338,795.524L760.499,795.524L786.249,762.098L811.64,762.098" style="fill:none;stroke:rgb(247,247,247);stroke-width:10.76px;"/>
            </g>
            <g transform="matrix(0.479767,0,0,0.479767,457.613,854.167)">
                <path d="M699.827,659.509L720.53,679.212L778.866,679.212" style="fill:none;stroke:rgb(247,247,247);stroke-width:10.76px;"/>
            </g>
        </g>
        <g transform="matrix(1,0,0,1,-508.495,-1061.87)">
            <g transform="matrix(0.479767,0,0,0.479767,452.882,851.012)">
                <circle cx="826.046" cy="869.786" r="14.281" style="fill:rgb(247,247,247);"/>
            </g>
            <g transform="matrix(0.479767,0,0,0.479767,437.476,726.994)">
                <circle cx="826.046" cy="869.786" r="14.281" style="fill:rgb(247,247,247);"/>
            </g>
            <g transform="matrix(0.479767,0,0,0.479767,405.116,785.859)">
                <circle cx="826.046" cy="869.786" r="14.281" style="fill:rgb(247,247,247);"/>
            </g>
            <g transform="matrix(0.479767,0,0,0.479767,379.129,810.503)">
                <circle cx="826.046" cy="869.786" r="14.281" style="fill:rgb(247,247,247);"/>
            </g>
            <g transform="matrix(0.479767,0,0,0.479767,405.357,842.837)">
                <circle cx="826.046" cy="869.786" r="14.281" style="fill:rgb(247,247,247);"/>
            </g>
            <g transform="matrix(0.479767,0,0,0.479767,348.438,877.387)">
                <circle cx="826.046" cy="869.786" r="14.281" style="fill:rgb(247,247,247);"/>
            </g>
            <g transform="matrix(0.479767,0,0,0.479767,314.213,889.122)">
                <circle cx="826.046" cy="869.786" r="14.281" style="fill:rgb(247,247,247);"/>
            </g>
            <g transform="matrix(0.479767,0,0,0.479767,468.782,900.249)">
                <circle cx="826.046" cy="869.786" r="14.281" style="fill:rgb(247,247,247);"/>
            </g>
            <g transform="matrix(0.479767,0,0,0.479767,442.482,893.088)">
                <circle cx="826.046" cy="869.786" r="14.281" style="fill:rgb(247,247,247);"/>
            </g>
            <g transform="matrix(0.479767,0,0,0.479767,398.069,878.367)">
                <circle cx="826.046" cy="869.786" r="14.281" style="fill:rgb(247,247,247);"/>
            </g>
            <g transform="matrix(0.479767,0,0,0.479767,364.714,913.156)">
                <circle cx="826.046" cy="869.786" r="14.281" style="fill:rgb(247,247,247);"/>
            </g>
            <g transform="matrix(0.479767,0,0,0.479767,420.596,939.317)">
                <circle cx="826.046" cy="869.786" r="14.281" style="fill:rgb(247,247,247);"/>
            </g>
            <g transform="matrix(0.479767,0,0,0.479767,465.93,930.44)">
                <circle cx="826.046" cy="869.786" r="14.281" style="fill:rgb(247,247,247);"/>
            </g>
            <g transform="matrix(0.479767,0,0,0.479767,436.784,984.277)">
                <circle cx="826.046" cy="869.786" r="14.281" style="fill:rgb(247,247,247);"/>
            </g>
            <g transform="matrix(0.479767,0,0,0.479767,405.848,1006.97)">
                <circle cx="826.046" cy="869.786" r="14.281" style="fill:rgb(247,247,247);"/>
            </g>
            <g transform="matrix(0.479767,0,0,0.479767,393.746,1032.7)">
                <circle cx="826.046" cy="869.786" r="14.281" style="fill:rgb(247,247,247);"/>
            </g>
            <g transform="matrix(0.479767,0,0,0.479767,353.452,1063.64)">
                <circle cx="826.046" cy="869.786" r="14.281" style="fill:rgb(247,247,247);"/>
            </g>
            <g transform="matrix(0.479767,0,0,0.479767,333.141,1085.02)">
                <circle cx="826.046" cy="869.786" r="14.281" style="fill:rgb(247,247,247);"/>
            </g>
            <g transform="matrix(0.479767,0,0,0.479767,323.367,1118.69)">
                <circle cx="826.046" cy="869.786" r="14.281" style="fill:rgb(247,247,247);"/>
            </g>
            <g transform="matrix(0.479767,0,0,0.479767,311.365,1043.4)">
                <circle cx="826.046" cy="869.786" r="14.281" style="fill:rgb(247,247,247);"/>
            </g>
            <g transform="matrix(0.479767,0,0,0.479767,324.735,989.985)">
                <circle cx="826.046" cy="869.786" r="14.281" style="fill:rgb(247,247,247);"/>
            </g>
            <g transform="matrix(0.479767,0,0,0.479767,357.637,978.625)">
                <circle cx="826.046" cy="869.786" r="14.281" style="fill:rgb(247,247,247);"/>
            </g>
            <g transform="matrix(0.479767,0,0,0.479767,395.67,1059.3)">
                <circle cx="826.046" cy="869.786" r="14.281" style="fill:rgb(247,247,247);"/>
            </g>
            <g transform="matrix(0.479767,0,0,0.479767,458.175,802.176)">
                <circle cx="826.046" cy="869.786" r="14.281" style="fill:rgb(247,247,247);"/>
            </g>
            <g transform="matrix(0.479767,0,0,0.479767,441.879,762.244)">
                <circle cx="826.046" cy="869.786" r="14.281" style="fill:rgb(247,247,247);"/>
            </g>
        </g>
    </g>
</svg>
